<?xml version="1.0" encoding="UTF-8"?> <svg xmlns="http://www.w3.org/2000/svg" xmlns:xlink="http://www.w3.org/1999/xlink" id="Layer_2" viewBox="0 0 50.25 50.25"><defs><style>.cls-1{clip-path:url(#clippath);}.cls-2{fill:none;}.cls-2,.cls-3{stroke-width:0px;}.cls-3{fill:#6db5e7;}</style><clipPath id="clippath"><rect class="cls-2" width="50.25" height="50.25"></rect></clipPath></defs><g id="Layer_1-2"><g class="cls-1"><path class="cls-3" d="m25.12,47.34c-12.28,0-22.22-9.94-22.22-22.22S12.84,2.91,25.12,2.91s22.22,9.94,22.22,22.22-9.94,22.22-22.22,22.22ZM25.12,0C11.25,0,0,11.25,0,25.12s11.25,25.12,25.12,25.12,25.12-11.25,25.12-25.12S39,0,25.12,0Z"></path><path class="cls-3" d="m31.4,35.76c.07-.07.13-.15.2-.22l6.06-5.89.59-.57c3.46-3.37,3.46-8.82,0-12.19s-9.08-3.37-12.54,0l-.59.57-.58-.56c-3.46-3.37-9.08-3.37-12.54,0-3.46,3.37-3.46,8.82,0,12.19l.58.56,6.28,6.1,6.26,6.08,6.06-5.89c.07-.07.15-.13.22-.2Z"></path></g></g></svg> 