<?xml version="1.0" encoding="UTF-8"?> <svg xmlns="http://www.w3.org/2000/svg" xmlns:xlink="http://www.w3.org/1999/xlink" id="Layer_2" viewBox="0 0 50.25 50.25"><defs><style>.cls-1{clip-path:url(#clippath);}.cls-2{fill:none;}.cls-2,.cls-3{stroke-width:0px;}.cls-4{clip-path:url(#clippath-1);}.cls-3{fill:#6db5e7;}</style><clipPath id="clippath"><rect class="cls-2" width="50.25" height="50.25"></rect></clipPath><clipPath id="clippath-1"><rect class="cls-2" x="10.37" y="12.36" width="29.25" height="29.25"></rect></clipPath></defs><g id="Layer_1-2"><g class="cls-1"><path class="cls-3" d="m25.12,47.34c-12.28,0-22.22-9.94-22.22-22.22S12.84,2.91,25.12,2.91s22.22,9.94,22.22,22.22-9.94,22.22-22.22,22.22ZM25.12,0C11.25,0,0,11.25,0,25.12s11.25,25.12,25.12,25.12,25.12-11.25,25.12-25.12S39,0,25.12,0Z"></path></g><g class="cls-4"><path class="cls-3" d="m37.53,16.53l-1.06.16c-3.19.5-6.49,0-9.32-2.47l-.76-.67c-.78-.99-2.05-.99-2.83,0l-.76.67c-2.82,2.47-6.12,2.97-9.3,2.48l-1.07-.16c-1.15-.34-2.06.39-2.04,1.63l.08,1.06c.77,11.06,5.47,17.5,11.58,21.02.95.55,1.74.9,1.74.9.66.29,1.73.29,2.38,0,0,0,.79-.35,1.74-.9,6.12-3.52,10.81-9.96,11.58-21.02l.08-1.06c.02-1.24-.89-1.97-2.02-1.64h0m-5.31,6.58l-6.35,8.22c-.47.61-1.15.95-1.88.95s-1.41-.35-1.88-.95l-2.77-3.57c-.56-.72-.44-1.76.26-2.33.7-.57,1.73-.45,2.29.27l2.1,2.71,5.68-7.36c.56-.72,1.58-.84,2.28-.27.71.57.83,1.61.27,2.33h0Z"></path></g></g></svg> 