<?xml version="1.0" encoding="UTF-8"?> <svg xmlns="http://www.w3.org/2000/svg" xmlns:xlink="http://www.w3.org/1999/xlink" id="Layer_2" viewBox="0 0 55.5 50.25"><defs><style>.cls-1{clip-path:url(#clippath);}.cls-2{fill:none;}.cls-2,.cls-3{stroke-width:0px;}.cls-3{fill:#6db5e7;}</style><clipPath id="clippath"><rect class="cls-2" width="55.5" height="50.25"></rect></clipPath></defs><g id="Layer_1-2"><g class="cls-1"><path class="cls-3" d="m23.84,14.54c0-.72.58-1.3,1.3-1.3s1.3.58,1.3,1.3v10.06l5.94,6.02c.5.51.49,1.33-.02,1.83-.51.5-1.33.49-1.83-.02l-6.25-6.33c-.27-.24-.45-.59-.45-.98v-10.59h0Zm1.3-4.52c-8.34,0-15.11,6.77-15.11,15.11s6.76,15.11,15.11,15.11,15.11-6.77,15.11-15.11-6.76-15.11-15.11-15.11h0Zm14.66,32.23c.54-.47,1.36-.4,1.82.14.46.54.4,1.36-.14,1.82-2.24,1.92-4.82,3.45-7.63,4.5-2.71,1-5.65,1.55-8.71,1.55-6.93,0-13.21-2.81-17.76-7.36C2.84,38.35.02,32.06.02,25.12S2.83,11.9,7.38,7.36C11.92,2.81,18.2,0,25.14,0s13.21,2.81,17.76,7.36c4.54,4.55,7.36,10.83,7.36,17.77,0,1.49-.13,2.95-.38,4.38-.07.42-.16.85-.26,1.26l3.83-1.96c.64-.33,1.41-.07,1.74.56.33.64.07,1.41-.56,1.74l-6.44,3.3c-.57.34-1.3.19-1.7-.35l-4.16-5.68c-.42-.58-.3-1.39.28-1.81.58-.42,1.39-.3,1.81.28l2.63,3.59c.11-.45.2-.91.29-1.38.22-1.27.34-2.58.34-3.93,0-6.22-2.52-11.85-6.6-15.93-4.07-4.08-9.71-6.6-15.93-6.6s-11.85,2.52-15.93,6.6c-4.07,4.08-6.59,9.71-6.59,15.93s2.52,11.85,6.59,15.93c4.07,4.08,9.71,6.6,15.93,6.6,2.75,0,5.38-.49,7.82-1.39,2.53-.94,4.84-2.31,6.84-4.03h0Z"></path></g></g></svg> 