<?xml version="1.0" encoding="UTF-8"?> <svg xmlns="http://www.w3.org/2000/svg" xmlns:xlink="http://www.w3.org/1999/xlink" id="Layer_2" viewBox="0 0 50.25 50.25"><defs><style>.cls-1{clip-path:url(#clippath);}.cls-2{fill:none;}.cls-2,.cls-3{stroke-width:0px;}.cls-4{clip-path:url(#clippath-1);}.cls-3{fill:#6db5e7;}</style><clipPath id="clippath"><rect class="cls-2" width="50.25" height="50.25"></rect></clipPath><clipPath id="clippath-1"><rect class="cls-2" x="11.8" y="10.43" width="25.5" height="32.25"></rect></clipPath></defs><g id="Layer_1-2"><g class="cls-1"><path class="cls-3" d="m25.12,47.34c-12.28,0-22.22-9.94-22.22-22.22S12.84,2.91,25.12,2.91s22.22,9.94,22.22,22.22-9.94,22.22-22.22,22.22ZM25.12,0C11.25,0,0,11.25,0,25.12s11.25,25.12,25.12,25.12,25.12-11.25,25.12-25.12S39,0,25.12,0Z"></path></g><g class="cls-4"><path class="cls-3" d="m23.75,22.12h1.59c.46,0,.9.08,1.33.25s.81.41,1.14.73c.33.32.6.69.79,1.11.19.42.3.86.33,1.32.03.46-.03.91-.18,1.35-.15.44-.37.84-.66,1.19-.3.35-.65.64-1.05.86-.4.22-.83.35-1.29.4v.44c0,.16-.03.31-.09.46-.06.15-.15.28-.26.39-.11.11-.24.2-.39.26-.15.06-.3.09-.46.09s-.31-.03-.46-.09c-.15-.06-.28-.15-.39-.26-.11-.11-.2-.24-.26-.39-.06-.15-.09-.3-.09-.46v-.4h-1.99c-.16,0-.31-.03-.46-.09-.15-.06-.28-.15-.39-.26-.11-.11-.2-.24-.26-.39-.06-.15-.09-.3-.09-.46s.03-.31.09-.46c.06-.15.15-.28.26-.39.11-.11.24-.2.39-.26.15-.06.3-.09.46-.09h3.98c.16,0,.31-.03.46-.09.15-.06.28-.15.39-.26.11-.11.2-.24.26-.39.06-.15.09-.3.09-.46s-.03-.31-.09-.46c-.06-.15-.15-.28-.26-.39-.11-.11-.24-.2-.39-.26-.15-.06-.3-.09-.46-.09h-1.59c-.46,0-.9-.08-1.33-.25-.43-.17-.81-.41-1.14-.73-.33-.32-.6-.69-.79-1.11-.19-.42-.3-.86-.33-1.32-.03-.46.03-.91.18-1.35.15-.44.37-.84.66-1.19.3-.35.65-.64,1.05-.86.4-.22.83-.35,1.29-.4v-.44c0-.16.03-.31.09-.46.06-.15.15-.28.26-.39.11-.11.24-.2.39-.26.15-.06.3-.09.46-.09s.31.03.46.09c.15.06.28.15.39.26.11.11.2.24.26.39.06.15.09.3.09.46v.4h1.99c.16,0,.31.03.46.09.15.06.28.15.39.26.11.11.2.24.26.39.06.15.09.3.09.46s-.03.31-.09.46c-.06.15-.15.28-.26.39-.11.11-.24.2-.39.26-.15.06-.3.09-.46.09h-3.98c-.16,0-.31.03-.46.09-.15.06-.28.15-.39.26-.11.11-.2.24-.26.39-.06.15-.09.3-.09.46s.03.31.09.46c.06.15.15.28.26.39.11.11.24.2.39.26.15.06.3.09.46.09Zm.8-11.69c-.84,0-1.67.08-2.49.25-.82.17-1.62.41-2.39.73s-1.51.72-2.2,1.19c-.7.47-1.34,1.01-1.93,1.6-.59.6-1.12,1.25-1.59,1.95-.47.7-.86,1.45-1.18,2.23s-.56,1.59-.73,2.42c-.16.83-.24,1.67-.24,2.52,0,.96.07,1.92.2,2.88.13.96.33,1.9.59,2.82.26.93.58,1.83.97,2.72.38.88.83,1.73,1.33,2.55.5.82,1.06,1.6,1.66,2.34.61.74,1.26,1.44,1.97,2.09.7.65,1.45,1.25,2.23,1.8.79.55,1.6,1.03,2.46,1.47l1.35.68,1.35-.68c.85-.43,1.67-.92,2.46-1.47s1.53-1.14,2.23-1.8c.7-.65,1.36-1.35,1.97-2.09.61-.74,1.16-1.52,1.66-2.34.5-.82.94-1.67,1.33-2.55.38-.88.71-1.79.97-2.72.26-.93.46-1.87.59-2.82.13-.96.2-1.91.2-2.88,0-.85-.08-1.69-.24-2.52-.16-.83-.41-1.64-.73-2.42-.32-.78-.71-1.53-1.18-2.23-.47-.7-.99-1.36-1.59-1.95-.59-.6-1.24-1.13-1.93-1.6s-1.43-.87-2.2-1.19-1.57-.57-2.39-.73c-.82-.17-1.65-.25-2.49-.25Z"></path></g></g></svg> 